<svg width="195" height="48" viewBox="0 0 195 48" fill="none" xmlns="http://www.w3.org/2000/svg">
<g clip-path="url(#clip0_4512_1065)">
<path d="M0.174433 23.8649C0.174433 20.7507 0.18787 17.6366 0.165475 14.5223C0.152038 12.7706 0.864213 11.3949 2.37366 10.5235C7.95012 7.30753 13.54 4.11371 19.1523 0.959716C20.6662 0.110393 22.2787 0.198864 23.7837 1.04818C29.2482 4.13141 34.6992 7.23677 40.1413 10.3598C41.8165 11.3197 42.6003 12.7706 42.5869 14.7303C42.5421 20.8746 42.551 27.0233 42.5869 33.1677C42.5958 35.1317 41.7448 36.534 40.0696 37.4983C34.6947 40.5727 29.3198 43.6515 23.936 46.7081C22.2115 47.6902 20.4647 47.6504 18.7402 46.6639C13.4012 43.6117 8.0576 40.5594 2.71407 37.516C0.976187 36.5295 0.129642 35.0919 0.160996 33.0792C0.214745 30.0092 0.174433 26.9349 0.174433 23.8605V23.8649ZM20.1511 32.9598C20.1511 31.3363 20.1422 29.7881 20.1511 28.2398C20.1691 25.7582 19.0582 23.9534 16.8859 22.7236C12.4292 20.2022 7.99491 17.6587 3.54718 15.1284C3.24261 14.9559 2.91115 14.8232 2.53939 14.6506V30.7037C2.84396 30.2525 3.03209 30.0092 3.18438 29.7438C4.76549 27.0587 6.32421 24.3603 7.91878 21.6796C8.72053 20.3305 9.84477 20.0474 11.1706 20.8436C8.622 25.2185 6.0689 29.5978 3.43969 34.1099H39.2992C36.67 29.5934 34.1169 25.2185 31.5684 20.8392C32.9076 20.0518 34.0184 20.3438 34.8291 21.6885C35.8414 23.3783 36.8223 25.0858 37.8167 26.7844C38.5512 28.0363 39.2903 29.2838 40.1727 30.779V14.7258C40.0025 14.7524 39.9129 14.7479 39.8502 14.7833C34.9366 17.579 29.9962 20.3349 25.1274 23.2058C23.5149 24.1568 22.6953 25.7449 22.6236 27.6338C22.5833 28.6556 22.6325 29.6819 22.5833 30.7037C22.5116 32.1679 21.7815 32.8934 20.1556 32.9642L20.1511 32.9598ZM21.3919 3.45018C21.0783 3.95004 20.8768 4.25527 20.6976 4.56492C18.7537 7.89145 16.8232 11.2312 14.8569 14.5489C13.9655 16.0574 12.9667 16.3537 11.5065 15.5574C13.6162 11.9301 15.7303 8.30282 17.84 4.67551L17.6787 4.51626C13.0697 7.1394 8.46523 9.76702 3.80249 12.4212C3.97269 12.5627 4.08467 12.6822 4.21904 12.7574C8.98928 15.4734 13.7506 18.2072 18.5387 20.8922C20.4557 21.9672 22.431 21.8964 24.3436 20.8348C26.834 19.4502 29.2974 18.0258 31.7744 16.6147C34.1572 15.2522 36.5401 13.8854 39.0215 12.4654C34.2737 9.7626 29.6692 7.1394 25.0647 4.51626C25.0109 4.56934 24.9572 4.62242 24.9079 4.67551C27.0221 8.30282 29.1317 11.9301 31.2459 15.5574C29.7767 16.3714 28.751 16.0219 27.8283 14.4516C25.7142 10.8464 23.6134 7.23677 21.4008 3.44576L21.3919 3.45018ZM22.5967 44.7043C27.3759 41.9838 31.958 39.3695 36.8492 36.5871H5.88526C10.7898 39.3783 15.3854 41.9927 20.1601 44.7087C20.1601 42.957 20.1243 41.4441 20.1691 39.9357C20.2139 38.4317 21.0738 37.662 22.5967 37.7903V44.7087V44.7043Z" fill="#D21E2B"/>
<path d="M59.2181 21.9852V30.5979H55.0078V9.13477H61.5204C63.6793 9.13477 65.3816 9.69215 66.6218 10.8024C67.8626 11.9127 68.481 13.461 68.481 15.4472C68.481 16.5575 68.221 17.5219 67.6972 18.3402C67.1733 19.1585 66.4203 19.8088 65.435 20.2865C66.5683 20.6626 67.3883 21.2819 67.8851 22.1489C68.3826 23.0115 68.6329 24.0953 68.6329 25.3957V26.9573C68.6329 27.5589 68.7005 28.187 68.844 28.8462C68.9824 29.5053 69.2334 29.9874 69.5918 30.2926V30.6023H65.2291C64.8796 30.2882 64.6602 29.7751 64.5662 29.0629C64.4723 28.3507 64.4227 27.6385 64.4227 26.9308V25.4223C64.4227 24.3341 64.1944 23.4848 63.7376 22.8832C63.2807 22.286 62.6223 21.9852 61.7668 21.9852H59.2271H59.2181ZM59.2181 18.7383H61.489C62.3938 18.7383 63.0836 18.4729 63.5584 17.9332C64.0332 17.398 64.2661 16.6371 64.2661 15.6551C64.2661 14.6731 64.0332 13.8547 63.5628 13.2619C63.0926 12.6692 62.4118 12.3772 61.5159 12.3772H59.2137V18.7339L59.2181 18.7383Z" fill="#D21E2B"/>
<path d="M87.3269 21.1134H80.6802V27.355H88.6392V30.6019H76.4648V9.12109H88.6076V12.3813H80.6757V17.8665H87.3224V21.1134H87.3269Z" fill="#D21E2B"/>
<path d="M95.9062 30.5975V9.12109H102.612C104.883 9.12109 106.759 9.95714 108.242 11.6337C109.724 13.3102 110.468 15.4601 110.468 18.0877V21.6398C110.468 24.2762 109.724 26.4261 108.242 28.0937C106.759 29.7614 104.883 30.593 102.612 30.593H95.9062V30.5975ZM100.117 12.3813V27.355H102.612C103.696 27.355 104.574 26.8242 105.241 25.7626C105.909 24.7009 106.24 23.3296 106.24 21.6442V18.0611C106.24 16.3979 105.904 15.0354 105.241 13.9738C104.578 12.9121 103.696 12.3813 102.612 12.3813H100.117Z" fill="#D21E2B"/>
<path d="M127.606 25.0238C127.606 24.1701 127.386 23.4933 126.943 22.9934C126.499 22.498 125.706 22.0114 124.56 21.5425C122.329 20.764 120.654 19.8837 119.525 18.9016C118.401 17.9196 117.836 16.5395 117.836 14.77C117.836 13.0006 118.477 11.5763 119.762 10.4703C121.048 9.36443 122.683 8.81152 124.676 8.81152C126.786 8.81152 128.483 9.39985 129.769 10.5809C131.054 11.762 131.677 13.3456 131.637 15.3274L131.605 15.4159H127.512C127.512 14.3056 127.261 13.4606 126.759 12.8856C126.257 12.3105 125.536 12.023 124.6 12.023C123.794 12.023 123.167 12.2884 122.719 12.8149C122.271 13.3412 122.047 14.0003 122.047 14.7833C122.047 15.5088 122.302 16.1104 122.808 16.5837C123.314 17.057 124.188 17.5702 125.424 18.132C127.525 18.8176 129.115 19.689 130.199 20.7419C131.278 21.7947 131.82 23.2102 131.82 24.9884C131.82 26.7667 131.189 28.2751 129.926 29.3235C128.662 30.3764 126.983 30.9027 124.891 30.9027C122.799 30.9027 121.066 30.3365 119.606 29.1997C118.141 28.0628 117.433 26.3332 117.483 24.0153L117.514 23.9268H121.622C121.622 25.2716 121.899 26.2403 122.45 26.8331C123.005 27.4214 123.816 27.7178 124.891 27.7178C125.796 27.7178 126.477 27.4745 126.929 26.9835C127.382 26.4925 127.61 25.8378 127.61 25.0194L127.606 25.0238Z" fill="black"/>
<path d="M152.22 12.3813H147.114V30.5975H142.886V12.3813H137.914V9.12109H152.224V12.3813H152.22Z" fill="black"/>
<path d="M167.335 25.9532H161.897L160.674 30.6024H156.285L162.452 9.12598H166.815L172.983 30.6024H168.575L167.335 25.9532ZM162.767 22.6798H166.47L164.665 15.8631H164.576L162.77 22.6798H162.767Z" fill="black"/>
<path d="M183.527 21.9852V30.5979H179.316V9.13477H185.829C187.992 9.13477 189.69 9.69215 190.931 10.8024C192.171 11.9127 192.789 13.461 192.789 15.4472C192.789 16.5575 192.529 17.5219 192.006 18.3402C191.482 19.1585 190.729 19.8088 189.743 20.2865C190.877 20.6626 191.697 21.2819 192.193 22.1489C192.691 23.0115 192.942 24.0953 192.942 25.3957V26.9573C192.942 27.5589 193.013 28.187 193.152 28.8462C193.291 29.5053 193.542 29.9874 193.9 30.2926V30.6023H189.538C189.188 30.2882 188.969 29.7751 188.875 29.0629C188.781 28.3507 188.731 27.6385 188.731 26.9308V25.4223C188.731 24.3341 188.503 23.4848 188.046 22.8832C187.589 22.286 186.93 21.9852 186.075 21.9852H183.536H183.527ZM183.527 18.7383H185.798C186.703 18.7383 187.392 18.4729 187.867 17.9332C188.342 17.398 188.575 16.6371 188.575 15.6551C188.575 14.6731 188.342 13.8547 187.871 13.2619C187.405 12.6736 186.72 12.3772 185.824 12.3772H183.522V18.7339L183.527 18.7383Z" fill="black"/>
<path d="M58.423 38.8034V44.8947H56.703V38.8034H54.3828V37.3613H60.7565V38.8034H58.4274H58.423Z" fill="#555555"/>
<path d="M68.2163 38.772V40.4086H71.8982V41.8198H68.2163V43.4874H72.422V44.8942H66.4961V37.3652H72.301V38.772H68.2163Z" fill="#555555"/>
<path d="M85.104 38.5565L84.1007 39.7641C83.5762 39.1714 82.8239 38.7866 82.116 38.7866C80.8082 38.7866 79.7959 39.7863 79.7959 41.1C79.7959 42.4139 80.8082 43.4269 82.116 43.4269C82.8013 43.4269 83.5537 43.0818 84.1007 42.5421L85.1124 43.6303C84.3066 44.4487 83.1418 44.9751 82.031 44.9751C79.756 44.9751 78.0312 43.3074 78.0312 41.1221C78.0312 38.9369 79.7869 37.3135 82.0941 37.3135C83.1959 37.3135 84.3465 37.7957 85.0995 38.561L85.104 38.5565Z" fill="#555555"/>
<path d="M96.1267 44.8942V41.9259H92.6734V44.8942H90.9531V37.3652H92.6734V40.506H96.1267V37.3652H97.8463V44.8942H96.1267Z" fill="#555555"/>
<path d="M109.679 44.8942L105.984 40.0636V44.8942H104.34V37.3652H105.908L109.612 42.2046V37.3652H111.247V44.8942H109.679Z" fill="#555555"/>
<path d="M125.387 41.1256C125.387 43.2976 123.623 44.9653 121.289 44.9653C118.955 44.9653 117.195 43.3064 117.195 41.1256C117.195 38.9448 118.96 37.3037 121.289 37.3037C123.618 37.3037 125.387 38.9404 125.387 41.1256ZM118.96 41.1256C118.96 42.4483 120.039 43.4834 121.312 43.4834C122.583 43.4834 123.623 42.4483 123.623 41.1256C123.623 39.803 122.588 38.79 121.312 38.79C120.035 38.79 118.96 39.803 118.96 41.1256Z" fill="#555555"/>
<path d="M136.318 43.4079V44.8942H131.328V37.3652H133.048V43.4123H136.318V43.4079Z" fill="#555555"/>
<path d="M149.803 41.1256C149.803 43.2976 148.038 44.9653 145.704 44.9653C143.37 44.9653 141.605 43.3064 141.605 41.1256C141.605 38.9448 143.37 37.3037 145.704 37.3037C148.038 37.3037 149.803 38.9404 149.803 41.1256ZM143.375 41.1256C143.375 42.4483 144.455 43.4834 145.726 43.4834C146.999 43.4834 148.038 42.4483 148.038 41.1256C148.038 39.803 147.003 38.79 145.726 38.79C144.45 38.79 143.375 39.803 143.375 41.1256Z" fill="#555555"/>
<path d="M162.166 41.0947V43.9877C161.359 44.5716 160.127 44.9653 159.071 44.9653C156.76 44.9653 155.008 43.3064 155.008 41.1256C155.008 38.9448 156.795 37.3037 159.169 37.3037C160.302 37.3037 161.458 37.7328 162.229 38.4007L161.261 39.6172C160.692 39.0996 159.908 38.7767 159.169 38.7767C157.816 38.7767 156.773 39.7985 156.773 41.1212C156.773 42.4439 157.83 43.479 159.183 43.479C159.64 43.479 160.186 43.3153 160.674 43.0676V41.0859H162.166V41.0947Z" fill="#555555"/>
<path d="M168.48 44.8942V37.3652H170.201V44.8942H168.48Z" fill="#555555"/>
<path d="M178.419 38.772V40.4086H182.101V41.8198H178.419V43.4874H182.625V44.8942H176.699V37.3652H182.504V38.772H178.419Z" fill="#555555"/>
<path d="M194.47 38.1045L193.807 39.5156C193.002 39.0423 192.043 38.7415 191.434 38.7415C190.856 38.7415 190.462 38.945 190.462 39.3564C190.462 40.7454 194.524 39.9712 194.515 42.6785C194.515 44.1515 193.217 44.9477 191.528 44.9477C190.274 44.9477 189.024 44.4744 188.164 43.7534L188.849 42.3644C189.633 43.0544 190.744 43.4924 191.55 43.4924C192.258 43.4924 192.683 43.2314 192.683 42.7714C192.683 41.3514 188.621 42.183 188.621 39.5112C188.621 38.1443 189.808 37.2861 191.572 37.2861C192.639 37.2861 193.709 37.609 194.47 38.1045Z" fill="#555555"/>
</g>
<defs>
<clipPath id="clip0_4512_1065">
<rect width="195" height="48" fill="white"/>
</clipPath>
</defs>
</svg>
